:SAMPLES-PER-SECOND 30
:FULLY-SPECIFIED
:DEGREES
361
root  -2.16754 33.5951 13.5864 15.7423 -30.7664 -2.34478
RightUpLeg  -26.455 -16.4907 13.3051
RightLeg  24.9224 -7.07134 -2.74296
RightFoot  -9.37282 0.072767 1.47642
RightToes  -4.53086 -0.0129571 -0.0423807
Spine  -0.158524 1.41905 1.83541
Spine1  -0.245532 3.03371 4.27428
HEad  -52.405 -22.8942 8.81743
LeftShoulder1  -1.94126e-019 -3.10601e-018 -2.51263e-017
LeftArm  -10.442 20.6831 -84.3818
LeftForeArm  29.0699 -26.2916 -4.49715
LeftHand  -0.40965 -1.18963 7.37578
RightShoulder  -4.96962e-017 0 -2.36833e-017
RightArm  -13.4103 -5.09477 82.2595
RightForeArm  45.8742 17.0066 1.42476
RightHand  -0.0515649 -5.06847 -12.7452
LeftUpLeg  -22.2824 10.7309 0.572073
LeftLeg  56.1952 2.27298 2.94898
LeftFoot  1.07151 -0.0011169 0.280998
LeftToes  -44.5643 1.34695e-006 1.12385e-007
362
root  -2.64478 33.8358 14.5208 14.6788 -32.1432 -1.4628
RightUpLeg  -22.3341 -13.6537 11.0265
RightLeg  22.0863 -8.56401 -2.8376
RightFoot  -8.79929 0.0795305 1.63133
RightToes  -6.03209 -0.0179843 -0.0561807
Spine  0.0659856 1.91305 1.44153
Spine1  0.194308 4.04727 3.47411
HEad  -52.4654 -23.6289 9.08959
LeftShoulder1  -1.94126e-019 -3.10601e-018 -2.51263e-017
LeftArm  -10.7165 20.3777 -84.1911
LeftForeArm  29.8528 -25.665 -4.34424
LeftHand  -0.420787 -1.27445 7.48309
RightShoulder  -4.96962e-017 0 -2.36833e-017
RightArm  -13.9556 -3.97705 83.4858
RightForeArm  47.5322 16.1998 1.29012
RightHand  -0.11773 -4.48146 -13.2577
LeftUpLeg  -25.5859 9.49624 0.152575
LeftLeg  58.9182 2.35376 3.37393
LeftFoot  -0.333414 0.000106219 0.197901
LeftToes  -42.5773 1.34695e-006 1.12385e-007
363
root  -3.03473 34.0513 15.4918 13.6038 -32.8534 -0.129505
RightUpLeg  -18.6364 -12.8204 8.89749
RightLeg  18.8905 -9.34086 -2.52542
RightFoot  -8.3415 0.0770875 1.65907
RightToes  -7.25239 -0.0223361 -0.0672982
Spine  0.107058 2.24741 0.906788
Spine1  0.244153 4.74306 2.40159
HEad  -51.8282 -24.4927 8.56689
LeftShoulder1  -1.94126e-019 -3.10601e-018 -2.51263e-017
LeftArm  -10.8306 20.5966 -83.8226
LeftForeArm  29.6635 -25.478 -4.30779
LeftHand  -0.425391 -1.11465 7.7362
RightShoulder  -4.96962e-017 0 -2.36833e-017
RightArm  -14.2593 -3.55993 84.3762
RightForeArm  47.438 16.0122 1.29008
RightHand  -0.117718 -4.49779 -13.5167
LeftUpLeg  -28.9732 6.78055 -0.485033
LeftLeg  58.8778 3.79093 5.421
LeftFoot  -0.424374 -0.00158356 0.180044
LeftToes  -40.0697 1.34695e-006 1.12385e-007
364
root  -3.44288 34.2147 16.4422 12.6567 -34.1639 1.07251
RightUpLeg  -15.0265 -12.2697 7.03438
RightLeg  15.4688 -9.48187 -1.96644
RightFoot  -7.75548 0.0648285 1.55904
RightToes  -8.32574 -0.0271268 -0.0769984
Spine  0.19461 2.73827 0.36643
Spine1  0.386904 5.73472 1.33499
HEad  -51.9903 -25.1642 8.9438
LeftShoulder1  -1.94126e-019 -3.10601e-018 -2.51263e-017
LeftArm  -11.148 20.87 -83.3693
LeftForeArm  28.9618 -25.1453 -4.26182
LeftHand  -0.424623 -1.02812 7.81947
RightShoulder  -4.96962e-017 0 -2.36833e-017
RightArm  -15.5036 -3.09096 85.1059
RightForeArm  47.8678 16.0335 1.27584
RightHand  -0.0955736 -4.68745 -13.3936
LeftUpLeg  -31.9475 4.82678 -0.630791
LeftLeg  56.3632 5.73609 7.45828
LeftFoot  -0.111572 -0.00585424 0.210324
LeftToes  -36.6353 1.34695e-006 1.12385e-007
365
root  -3.8953 34.2874 17.3999 12.1841 -35.6093 1.66767
RightUpLeg  -11.4722 -11.194 5.66303
RightLeg  11.9939 -9.48243 -1.37563
RightFoot  -7.16312 0.0525245 1.44186
RightToes  -9.65563 -0.0315938 -0.0889099
Spine  0.237779 3.08024 0.0187985
Spine1  0.450746 6.42049 0.656902
HEad  -51.5634 -25.2634 8.56855
LeftShoulder1  -1.94126e-019 -3.10601e-018 -2.51263e-017
LeftArm  -11.4336 21.6311 -82.8917
LeftForeArm  28.3479 -24.7496 -4.18873
LeftHand  -0.417459 -0.968419 7.75687
RightShoulder  -4.96962e-017 0 -2.36833e-017
RightArm  -15.4278 -2.51233 85.4134
RightForeArm  48.0141 16.1349 1.27216
RightHand  -0.0522082 -5.07198 -13.2926
LeftUpLeg  -34.394 3.31071 0.165829
LeftLeg  51.6257 7.70405 8.44239
LeftFoot  -0.353256 -0.00380192 0.150067
LeftToes  -33.6077 1.34695e-006 1.12385e-007
366
root  -4.353 34.255 18.3845 12.0623 -37.156 1.96385
RightUpLeg  -8.38904 -10.0134 4.5753
RightLeg  9.13676 -9.46174 -0.895935
RightFoot  -7.02701 0.049343 1.40595
RightToes  -10.4014 -0.03465 -0.0955353
Spine  0.222928 3.31792 -0.268286
Spine1  0.392688 6.92158 0.0790645
HEad  -51.6901 -24.6933 8.68232
LeftShoulder1  -1.94126e-019 -3.10601e-018 -2.51263e-017
LeftArm  -11.7041 22.6864 -82.319
LeftForeArm  28.0038 -24.0533 -4.05196
LeftHand  -0.407097 -0.949319 7.58844
RightShoulder  -4.96962e-017 0 -2.36833e-017
RightArm  -14.8047 -2.15298 85.5646
RightForeArm  47.8372 16.4604 1.29025
RightHand  -0.0396932 -5.18443 -13.3124
LeftUpLeg  -36.2198 2.00934 1.44543
LeftLeg  44.6955 9.0604 7.79108
LeftFoot  -0.650868 -0.00047721 0.0774676
LeftToes  -31.9116 1.34695e-006 1.12385e-007
367
root  -4.88407 34.106 19.4337 11.9595 -38.4429 1.77868
RightUpLeg  -5.15897 -9.42195 3.84379
RightLeg  6.84625 -9.08055 -0.496619
RightFoot  -7.33244 0.051174 1.39796
RightToes  -11.6773 -0.0400779 -0.106777
Spine  0.243741 3.41035 -0.415219
Spine1  0.412501 7.14558 -0.229693
HEad  -51.1801 -23.7253 8.09965
LeftShoulder1  -1.94126e-019 -3.10601e-018 -2.51263e-017
LeftArm  -11.4973 23.8309 -81.6823
LeftForeArm  27.8008 -22.9782 -3.86492
LeftHand  -0.399152 -0.950326 7.44144
RightShoulder  -4.96962e-017 0 -2.36833e-017
RightArm  -13.9654 -2.24897 85.4327
RightForeArm  47.5749 17.2397 1.39326
RightHand  -0.0295086 -5.2756 -13.1559
LeftUpLeg  -37.0264 0.278537 3.43822
LeftLeg  36.4519 8.74187 5.582
LeftFoot  -0.712462 -0.000531141 0.0760594
LeftToes  -30.984 1.34695e-006 1.12385e-007
368
root  -5.47023 33.8676 20.5929 11.9696 -39.0146 1.63126
RightUpLeg  -2.57879 -9.69984 3.06923
RightLeg  6.09849 -8.46271 -0.352849
RightFoot  -8.45972 0.0655216 1.48023
RightToes  -13.4872 -0.0482037 -0.122509
Spine  0.190582 3.14292 -0.498683
Spine1  0.305854 6.57405 -0.374779
HEad  -51.2171 -22.8691 7.95648
LeftShoulder1  -1.94126e-019 -3.10601e-018 -2.51263e-017
LeftArm  -11.5924 25.0333 -81.2003
LeftForeArm  28.493 -21.341 -3.57564
LeftHand  -0.380765 -0.987936 7.06504
RightShoulder  -4.96962e-017 0 -2.36833e-017
RightArm  -13.5134 -3.01802 85.0415
RightForeArm  47.8115 18.979 1.70439
RightHand  -0.0364658 -5.21295 -13.2385
LeftUpLeg  -37.4774 -3.5949 5.92645
LeftLeg  28.5227 7.79564 3.58875
LeftFoot  0.273401 -0.000164563 0.230638
LeftToes  -30.2282 1.34695e-006 1.12385e-007
369
root  -6.07823 33.5663 21.9871 10.8335 -38.7208 2.7131
RightUpLeg  -0.567896 -10.4397 1.11059
RightLeg  8.21048 -8.28746 -0.651108
RightFoot  -10.8167 0.11462 1.80237
RightToes  -14.1359 -0.0512365 -0.128084
Spine  0.231084 2.54952 -0.885329
Spine1  0.35983 5.35166 -1.13026
HEad  -50.7273 -22.1677 7.33679
LeftShoulder1  -1.94126e-019 -3.10601e-018 -2.51263e-017
LeftArm  -11.9164 26.035 -80.5106
LeftForeArm  29.7241 -19.2201 -3.22724
LeftHand  -0.374746 -1.0852 6.85871
RightShoulder  -4.96962e-017 0 -2.36833e-017
RightArm  -12.1746 -4.50551 84.4121
RightForeArm  47.0811 20.8367 2.08545
RightHand  -0.0215525 -5.34622 -13.4502
LeftUpLeg  -36.8908 -9.90164 7.64318
LeftLeg  21.9207 9.03821 2.96027
LeftFoot  3.23003 -0.0157674 0.720777
LeftToes  -30.1612 1.34695e-006 1.12385e-007
370
root  -6.63723 33.2244 23.3912 9.31806 -40.5343 4.81081
RightUpLeg  -1.01554 -7.59065 -1.57859
RightLeg  14.0111 -9.73032 -1.76148
RightFoot  -14.7299 0.283763 2.7945
RightToes  -14.588 -0.0533875 -0.131949
Spine  0.0557102 2.59481 -1.66735
Spine1  -0.0368238 5.41195 -2.67556
HEad  -49.8114 -21.3731 6.65415
LeftShoulder1  -1.94126e-019 -3.10601e-018 -2.51263e-017
LeftArm  -12.4787 26.9758 -79.6415
LeftForeArm  30.6277 -16.6675 -2.82726
LeftHand  -0.363156 -0.994947 6.7367
RightShoulder  -4.96962e-017 0 -2.36833e-017
RightArm  -11.7419 -6.27822 84.0971
RightForeArm  46.5839 21.827 2.30037
RightHand  -0.0243464 -5.31898 -14.2935
LeftUpLeg  -36.2038 -12.3839 6.61467
LeftLeg  20.4396 8.60921 2.57792
LeftFoot  9.8497 -0.135652 1.73573
LeftToes  -31.1954 1.34695e-006 1.12385e-007
371
root  -7.21408 32.8361 24.773 7.37632 -42.3488 6.38962
RightUpLeg  -2.02404 -5.92845 -3.7831
RightLeg  22.33 -10.9111 -3.65479
RightFoot  -16.8711 0.453553 3.6661
RightToes  -17.1716 -0.0662593 -0.153701
Spine  0.0458945 2.55322 -2.22339
Spine1  -0.0904858 5.31687 -3.77802
HEad  -48.8002 -20.4447 6.08397
LeftShoulder1  -1.94126e-019 -3.10601e-018 -2.51263e-017
LeftArm  -13.5132 27.7271 -79.141
LeftForeArm  31.3821 -14.6305 -2.52333
LeftHand  -0.363762 -0.863283 6.87859
RightShoulder  -4.96962e-017 0 -2.36833e-017
RightArm  -11.2864 -7.51129 83.4901
RightForeArm  47.2253 21.3117 2.17462
RightHand  -0.0533084 -5.07852 -14.308
LeftUpLeg  -36.2622 -11.2057 3.97603
LeftLeg  27.1777 7.0523 3.05116
LeftFoot  9.16706 -0.100935 1.42051
LeftToes  -32.1192 1.34695e-006 1.12385e-007
372
root  -7.77686 32.6704 26.0037 5.37811 -43.0367 8.04226
RightUpLeg  -4.66744 -8.15782 -6.23687
RightLeg  33.2037 -10.8571 -6.09703
RightFoot  -14.1551 0.34511 3.39452
RightToes  -30.3327 -0.146219 -0.254272
Spine  0.264984 2.27366 -2.72429
Spine1  0.298487 4.82919 -4.80069
HEad  -47.9805 -20.0123 5.21663
LeftShoulder1  -1.94126e-019 -3.10601e-018 -2.51263e-017
LeftArm  -15.6011 26.4915 -78.8712
LeftForeArm  33.2421 -10.9101 -1.91243
LeftHand  -0.364465 -0.853915 6.90125
RightShoulder  -4.96962e-017 0 -2.36833e-017
RightArm  -13.3969 -7.85105 83.375
RightForeArm  49.5957 18.5504 1.55228
RightHand  -0.0980563 -4.7231 -14.7012
LeftUpLeg  -36.0094 -9.63787 1.00852
LeftLeg  32.8825 5.85156 3.25616
LeftFoot  4.72429 -0.0242981 0.750566
LeftToes  -26.218 1.34695e-006 1.12385e-007
373
root  -8.36918 32.6921 27.0974 4.81608 -44.2863 8.30304
RightUpLeg  -9.24081 -10.4513 -7.00333
RightLeg  44.6897 -11.848 -10.1465
RightFoot  -7.05747 0.101504 2.2879
RightToes  -39.256 -0.212567 -0.310881
Spine  0.378895 2.39824 -2.99258
Spine1  0.48749 5.0885 -5.34943
HEad  -47.8863 -20.3628 5.21729
LeftShoulder1  -1.94126e-019 -3.10601e-018 -2.51263e-017
LeftArm  -17.7913 24.9925 -78.5611
LeftForeArm  35.4104 -9.61177 -1.68655
LeftHand  -0.378797 -0.632711 7.41267
RightShoulder  -4.96962e-017 0 -2.36833e-017
RightArm  -16.763 -8.81161 83.096
RightForeArm  51.1264 16.3008 1.17082
RightHand  -0.088225 -4.82246 -15.3075
LeftUpLeg  -33.8554 -6.6098 -0.703943
LeftLeg  33.9229 4.37569 2.54148
LeftFoot  1.11284 -0.00123294 0.288509
LeftToes  -23.7385 1.34695e-006 1.12385e-007
374
root  -9.00075 32.9024 28.0232 5.06879 -45.9017 8.01879
RightUpLeg  -14.8583 -12.4578 -6.28908
RightLeg  54.6486 -12.7216 -15.2411
RightFoot  -2.59642 0.0134843 1.29224
RightToes  -15.12 -0.0559574 -0.136475
Spine  0.379893 2.2599 -3.05245
Spine1  0.473702 4.82027 -5.49133
HEad  -47.0408 -19.7247 4.62876
LeftShoulder1  -1.94126e-019 -3.10601e-018 -2.51263e-017
LeftArm  -18.8272 24.2062 -78.3575
LeftForeArm  34.9467 -9.70658 -1.70369
LeftHand  -0.397854 0.0549889 8.71967
RightShoulder  -4.96962e-017 0 -2.36833e-017
RightArm  -19.6309 -9.47812 82.8705
RightForeArm  52.4316 14.6751 1.23634
RightHand  -0.0532963 -5.09636 -15.6047
LeftUpLeg  -31.4777 -5.19742 -1.12264
LeftLeg  33.2569 4.66453 2.6372
LeftFoot  -0.841148 -0.000413438 0.10516
LeftToes  -22.5264 1.34695e-006 1.12385e-007
375
root  -9.74692 33.2221 28.8299 5.57156 -47.0936 6.98982
RightUpLeg  -18.9787 -14.306 -4.34508
RightLeg  59.4028 -11.109 -15.8496
RightFoot  -3.34176 0.0246593 1.52983
RightToes  -15.3477 -0.0570701 -0.138405
Spine  0.523728 1.77427 -2.78544
Spine1  0.784288 3.85904 -4.98074
HEad  -46.1371 -18.5271 4.05211
LeftShoulder1  -1.94126e-019 -3.10601e-018 -2.51263e-017
LeftArm  -18.8001 23.756 -78.2998
LeftForeArm  33.0869 -11.327 -1.99981
LeftHand  -0.392684 0.537118 9.41485
RightShoulder  -4.96962e-017 0 -2.36833e-017
RightArm  -21.1306 -9.95779 82.5018
RightForeArm  53.3364 13.8017 1.32394
RightHand  -0.0487578 -5.12333 -14.9095
LeftUpLeg  -28.3123 -4.30539 -0.686306
LeftLeg  31.4197 4.93253 2.58404
LeftFoot  -1.58569 -0.00190148 0.0240999
LeftToes  -22.7373 1.34695e-006 1.12385e-007
